<?xml version="1.0" encoding="utf-8"?>
<!-- Svg Vector Icons : http://www.onlinewebfonts.com/icon -->
<!DOCTYPE svg PUBLIC "-//W3C//DTD SVG 1.1//EN" "http://www.w3.org/Graphics/SVG/1.1/DTD/svg11.dtd">
<svg version="1.1" xmlns="http://www.w3.org/2000/svg" xmlns:xlink="http://www.w3.org/1999/xlink" x="0px" y="0px" viewBox="0 0 1000 1000" enable-background="new 0 0 1000 1000" xml:space="preserve">
<metadata> Svg Vector Icons : http://www.onlinewebfonts.com/icon </metadata>
<g><path d="M968.7,250.3c0-70.6-57.2-127.8-127.8-127.8H159.1c-70.6,0-127.8,57.2-127.8,127.8L10,420.8c0,47.1,38.2,85.2,85.2,85.2h42.6c25.5,0,48.3-11.3,63.9-29c15.6,17.7,38.4,29,63.9,29H287c25.5,0,48.3-11.3,63.9-29c15.6,17.7,38.4,29,63.9,29h21.3c25.5,0,48.3-11.3,63.9-29c15.6,17.7,38.4,29,63.9,29h21.3c25.5,0,48.3-11.3,63.9-29c15.6,17.7,38.4,29,63.9,29h21.3c25.5,0,48.3-11.3,63.9-29c15.6,17.7,38.4,29,63.9,29h42.6c47.1,0,85.2-38.2,85.2-85.2L968.7,250.3z M904.8,463.4h-42.6c-23.5,0-42.6-19.1-42.6-42.6v-21.3v-63.9c0-11.8-9.5-21.3-21.3-21.3c-11.8,0-21.3,9.5-21.3,21.3v63.9v21.3c0,23.5-19.1,42.6-42.6,42.6H713c-23.5,0-42.6-19.1-42.6-42.6v-21.3v-63.9c0-11.8-9.5-21.3-21.3-21.3c-11.8,0-21.3,9.5-21.3,21.3v63.9v21.3c0,23.5-19.1,42.6-42.6,42.6h-21.3c-23.5,0-42.6-19.1-42.6-42.6v-21.3v-63.9c0-11.8-9.5-21.3-21.3-21.3c-11.8,0-21.3,9.5-21.3,21.3v63.9v21.3c0,23.5-19.1,42.6-42.6,42.6h-21.3c-23.5,0-42.6-19.1-42.6-42.6v-21.3v-63.9c0-11.8-9.5-21.3-21.3-21.3c-11.8,0-21.3,9.5-21.3,21.3v63.9v21.3c0,23.5-19.1,42.6-42.6,42.6h-21.3c-23.5,0-42.6-19.1-42.6-42.6v-21.3v-63.9c0-11.8-9.5-21.3-21.3-21.3s-21.3,9.5-21.3,21.3v63.9v21.3c0,23.5-19.1,42.6-42.6,42.6H95.2c-23.5,0-42.6-19.1-42.6-42.6l21.3-170.4c0-47.1,38.2-85.2,85.2-85.2h681.7c47.1,0,85.2,38.2,85.2,85.2l21.3,170.4C947.4,444.3,928.3,463.4,904.8,463.4z"/><path d="M599.2,771c0,11.8,9.5,21.3,21.3,21.3c11.8,0,21.3-9.5,21.3-21.3c0-11.8-9.5-21.3-21.3-21.3C608.8,749.7,599.2,759.2,599.2,771z"/><path d="M825.3,816.1c0,10-8.1,18.1-18.1,18.1H192.8c-10,0-18.1-8.1-18.1-18.1V645.7h-43.3v170.4c0,33.9,27.5,61.4,61.4,61.4h614.4c33.9,0,61.4-27.5,61.4-61.4V645.7h-43.3L825.3,816.1L825.3,816.1z"/><path d="M174.7,582.9c0-12-9.7-21.7-21.7-21.7c-12,0-21.7,9.7-21.7,21.7v163.5h43.3L174.7,582.9L174.7,582.9z"/><path d="M868.6,582.9c0-12-9.7-21.7-21.7-21.7s-21.7,9.7-21.7,21.7v163.5h43.3L868.6,582.9L868.6,582.9z"/><path d="M556.6,668.4c0-11.8,9.5-21.3,21.3-21.3h63.9c11.8,0,21.3,9.5,21.3,21.3v167.3h42.6V647.1c0-23.5-19.1-42.6-42.6-42.6H556.6c-23.5,0-42.6,19.1-42.6,42.6v188.6h42.6V668.4z"/></g>
</svg>